<svg xmlns="http://www.w3.org/2000/svg"  viewBox="0 0 100 100" width="100px" height="100px"><circle cx="52" cy="52" r="44" opacity=".35"/><circle cx="50" cy="50" r="44" fill="#f2f2f2"/><path fill="#70bfff" d="M50,12.5c-20.711,0-37.5,16.789-37.5,37.5S29.289,87.5,50,87.5S87.5,70.711,87.5,50 S70.711,12.5,50,12.5z"/><path fill="#40396e" d="M50,89c-21.505,0-39-17.495-39-39s17.495-39,39-39s39,17.495,39,39S71.505,89,50,89z M50,14 c-19.851,0-36,16.149-36,36s16.149,36,36,36s36-16.149,36-36S69.851,14,50,14z"/><g><path fill="#f2f2f2" d="M73.501,37.777c-1.58,0.7-3.28,1.167-5.073,1.388c1.823-1.082,3.225-2.808,3.883-4.847 c-1.706,1-3.595,1.734-5.605,2.121c-1.605-1.702-3.895-2.758-6.432-2.758c-4.873,0-8.823,3.915-8.823,8.743 c0,0.683,0.08,1.348,0.231,1.995c-7.331-0.368-13.833-3.853-18.183-9.142c-0.764,1.292-1.194,2.806-1.194,4.403 c0,3.035,1.554,5.707,3.924,7.281c-1.446-0.044-2.808-0.447-4-1.092c0,0.026,0,0.066,0,0.103c0,4.241,3.042,7.773,7.074,8.577 c-0.737,0.202-1.516,0.314-2.318,0.314c-0.57,0-1.125-0.064-1.663-0.161c1.123,3.466,4.38,5.999,8.239,6.075 c-3.019,2.341-6.822,3.743-10.957,3.743c-0.714,0-1.413-0.041-2.103-0.124c3.907,2.474,8.546,3.924,13.525,3.924 c16.226,0,25.102-13.325,25.102-24.884c0-0.379-0.012-0.756-0.03-1.129C70.829,41.083,72.322,39.54,73.501,37.777"/></g></svg>