<svg xmlns="http://www.w3.org/2000/svg"  viewBox="0 0 100 100" width="100px" height="100px"><circle cx="52" cy="52" r="44" opacity=".35"/><circle cx="50" cy="50" r="44" fill="#f2f2f2"/><path fill="#70bfff" d="M87.5,50c0,20.709-16.791,37.5-37.5,37.5S12.5,70.709,12.5,50S29.291,12.5,50,12.5 S87.5,29.291,87.5,50z"/><path fill="#f2f2f2" d="M53.983,61.061h8.95l1.406-9.092H53.983v-4.97c0-3.777,1.235-7.126,4.767-7.126h5.677v-7.934 c-0.998-0.135-3.107-0.429-7.093-0.429c-8.324,0-13.204,4.396-13.204,14.411v6.049h-8.558v9.092h8.556v25.03 c1.695,0.252,3.412,0.386,5.174,0.386c1.593,0,3.147-0.107,4.681-0.315V61.061z"/><path fill="#40396e" d="M50,89c-21.505,0-39-17.495-39-39s17.495-39,39-39s39,17.495,39,39S71.505,89,50,89z M50,14 c-19.851,0-36,16.149-36,36s16.149,36,36,36s36-16.149,36-36S69.851,14,50,14z"/></svg>